<svg width="16" height="16" viewBox="0 0 16 16" fill="none" xmlns="http://www.w3.org/2000/svg">
<path d="M7.98561 14.6668C9.30178 14.6668 10.5884 14.2758 11.6827 13.5433C12.7771 12.8108 13.6301 11.7696 14.1337 10.5514C14.6374 9.33322 14.7692 7.99277 14.5124 6.69956C14.2556 5.40636 13.6219 4.21847 12.6912 3.28612C11.7605 2.35377 10.5748 1.71883 9.28387 1.4616C7.99299 1.20436 6.65496 1.33638 5.43897 1.84097C4.22299 2.34555 3.18367 3.20004 2.45245 4.29636C1.72122 5.39269 1.33093 6.68162 1.33093 8.00017C1.33602 9.76671 2.03878 11.4594 3.28567 12.7086C4.53256 13.9577 6.22225 14.6617 7.98561 14.6668Z" fill="#1F2A37" stroke="white" stroke-linecap="round" stroke-linejoin="round"/>
<path d="M5.32361 7.99982H10.6473H5.32361Z" fill="#1F2A37"/>
<path d="M5.32361 7.99982H10.6473" stroke="white" stroke-linecap="round" stroke-linejoin="round"/>
<path d="M7.98535 10.6665V5.33319V10.6665Z" fill="#1F2A37"/>
<path d="M7.98535 10.6665V5.33319" stroke="white" stroke-linecap="round" stroke-linejoin="round"/>
</svg>
