<svg width="26" height="26" viewBox="0 0 26 26" fill="none" xmlns="http://www.w3.org/2000/svg">
<path d="M12.7895 23.4482C14.8974 23.4482 16.958 22.8231 18.7107 21.652C20.4634 20.4809 21.8294 18.8164 22.6361 16.8689C23.4428 14.9214 23.6538 12.7785 23.2426 10.7111C22.8314 8.64363 21.8163 6.74457 20.3258 5.25404C18.8352 3.76351 16.9362 2.74844 14.8687 2.3372C12.8013 1.92596 10.6584 2.13703 8.71089 2.9437C6.76341 3.75037 5.09888 5.11642 3.92777 6.8691C2.75667 8.62178 2.13159 10.6824 2.13159 12.7903C2.13975 15.6145 3.26525 18.3206 5.26223 20.3176C7.2592 22.3146 9.96535 23.4401 12.7895 23.4482Z" fill="white" stroke="#1F2A37" stroke-width="1.16546" stroke-linecap="round" stroke-linejoin="round"/>
<path d="M8.52631 12.7903H17.0526H8.52631Z" fill="white"/>
<path d="M8.52631 12.7903H17.0526" stroke="#1F2A37" stroke-width="1.16546" stroke-linecap="round" stroke-linejoin="round"/>
<path d="M12.7895 17.0532V8.52685V17.0532Z" fill="white"/>
<path d="M12.7895 17.0532V8.52685" stroke="#1F2A37" stroke-width="1.16546" stroke-linecap="round" stroke-linejoin="round"/>
</svg>
