<svg width="18" height="22" viewBox="0 0 18 22" fill="none" xmlns="http://www.w3.org/2000/svg">
<path d="M12.75 14.75V17M5.25 10.25H5.2575V10.2575H5.25V10.25ZM5.25 12.5H5.2575V12.5075H5.25V12.5ZM5.25 14.75H5.2575V14.7575H5.25V14.75ZM5.25 17H5.2575V17.0075H5.25V17ZM7.74756 10.25H7.75506V10.2575H7.74756V10.25ZM7.74756 12.5H7.75506V12.5075H7.74756V12.5ZM7.74756 14.75H7.75506V14.7575H7.74756V14.75ZM7.74756 17H7.75506V17.0075H7.74756V17ZM10.2524 10.25H10.2599V10.2575H10.2524V10.25ZM10.2524 12.5H10.2599V12.5075H10.2524V12.5ZM10.2524 14.75H10.2599V14.7575H10.2524V14.75ZM10.2524 17H10.2599V17.0075H10.2524V17ZM12.75 10.25H12.7575V10.2575H12.75V10.25ZM12.75 12.5H12.7575V12.5075H12.75V12.5ZM5.25 5H12.75V7.25H5.25V5ZM9 1.25C7.108 1.25 5.24156 1.35947 3.40668 1.57241C2.30608 1.70014 1.5 2.649 1.5 3.75699V18.5C1.5 19.7426 2.50736 20.75 3.75 20.75H14.25C15.4926 20.75 16.5 19.7426 16.5 18.5V3.75699C16.5 2.649 15.6939 1.70014 14.5933 1.57241C12.7584 1.35947 10.892 1.25 9 1.25Z" stroke="#9CA3AF" stroke-width="1.5" stroke-linecap="round" stroke-linejoin="round"/>
</svg>
