<svg width="18" height="21" viewBox="0 0 18 21" fill="none" xmlns="http://www.w3.org/2000/svg">
<path fill-rule="evenodd" clip-rule="evenodd" d="M10 3.5C10.2086 3.5 10.4077 3.58684 10.5496 3.73966L13.7996 7.23966C14.0815 7.54319 14.0639 8.01774 13.7603 8.2996C13.4568 8.58145 12.9823 8.56387 12.7004 8.26034L10 5.35221L7.2996 8.26034C7.01775 8.56387 6.5432 8.58145 6.23966 8.29959C5.93613 8.01774 5.91856 7.54319 6.20041 7.23966L9.45041 3.73966C9.59232 3.58684 9.79145 3.5 10 3.5ZM6.23967 12.7004C6.5432 12.4186 7.01775 12.4361 7.2996 12.7397L10 15.6478L12.7004 12.7397C12.9823 12.4361 13.4568 12.4186 13.7603 12.7004C14.0639 12.9823 14.0815 13.4568 13.7996 13.7603L10.5496 17.2603C10.4077 17.4132 10.2086 17.5 10 17.5C9.79145 17.5 9.59232 17.4132 9.45041 17.2603L6.20041 13.7603C5.91856 13.4568 5.93613 12.9823 6.23967 12.7004Z" fill="#1F2A37"/>
</svg>
