<svg width="21" height="20" viewBox="0 0 21 20" fill="none" xmlns="http://www.w3.org/2000/svg">
<path d="M13.5 17.1276C14.3329 17.37 15.2138 17.5 16.125 17.5C17.6037 17.5 19.0025 17.1576 20.2464 16.5478C20.2488 16.4905 20.25 16.4329 20.25 16.375C20.25 14.0968 18.4031 12.25 16.125 12.25C14.7069 12.25 13.456 12.9655 12.7136 14.0552M13.5 17.1276V17.125C13.5 16.0121 13.2148 14.9658 12.7136 14.0552M13.5 17.1276C13.5 17.1632 13.4997 17.1988 13.4991 17.2343C11.6374 18.3552 9.45647 19 7.125 19C4.79353 19 2.61264 18.3552 0.75092 17.2343C0.750309 17.198 0.75 17.1615 0.75 17.125C0.75 13.6042 3.60418 10.75 7.125 10.75C9.53292 10.75 11.629 12.085 12.7136 14.0552M10.5 4.375C10.5 6.23896 8.98896 7.75 7.125 7.75C5.26104 7.75 3.75 6.23896 3.75 4.375C3.75 2.51104 5.26104 1 7.125 1C8.98896 1 10.5 2.51104 10.5 4.375ZM18.75 6.625C18.75 8.07475 17.5747 9.25 16.125 9.25C14.6753 9.25 13.5 8.07475 13.5 6.625C13.5 5.17525 14.6753 4 16.125 4C17.5747 4 18.75 5.17525 18.75 6.625Z" stroke="white" stroke-width="1.5" stroke-linecap="round" stroke-linejoin="round"/>
</svg>
