<svg width="22" height="20" viewBox="0 0 22 20" fill="none" xmlns="http://www.w3.org/2000/svg">
<path d="M14 17.1276C14.8329 17.37 15.7138 17.5 16.625 17.5C18.1037 17.5 19.5025 17.1576 20.7464 16.5478C20.7488 16.4905 20.75 16.4329 20.75 16.375C20.75 14.0968 18.9031 12.25 16.625 12.25C15.2069 12.25 13.956 12.9655 13.2136 14.0552M14 17.1276V17.125C14 16.0121 13.7148 14.9658 13.2136 14.0552M14 17.1276C14 17.1632 13.9997 17.1988 13.9991 17.2343C12.1374 18.3552 9.95647 19 7.625 19C5.29353 19 3.11264 18.3552 1.25092 17.2343C1.25031 17.198 1.25 17.1615 1.25 17.125C1.25 13.6042 4.10418 10.75 7.625 10.75C10.0329 10.75 12.129 12.085 13.2136 14.0552M11 4.375C11 6.23896 9.48896 7.75 7.625 7.75C5.76104 7.75 4.25 6.23896 4.25 4.375C4.25 2.51104 5.76104 1 7.625 1C9.48896 1 11 2.51104 11 4.375ZM19.25 6.625C19.25 8.07475 18.0747 9.25 16.625 9.25C15.1753 9.25 14 8.07475 14 6.625C14 5.17525 15.1753 4 16.625 4C18.0747 4 19.25 5.17525 19.25 6.625Z" stroke="#9CA3AF" stroke-width="1.5" stroke-linecap="round" stroke-linejoin="round"/>
</svg>
