<svg width="24" height="24" viewBox="0 0 24 24" fill="none" xmlns="http://www.w3.org/2000/svg">
<path d="M11.9998 11.9996C13.1932 11.9996 14.3378 11.5255 15.1817 10.6816C16.0257 9.83764 16.4998 8.69305 16.4998 7.49957C16.4998 6.3061 16.0257 5.16151 15.1817 4.31759C14.3378 3.47368 13.1932 2.99957 11.9998 2.99957C10.8063 2.99957 9.66169 3.47368 8.81778 4.31759C7.97386 5.16151 7.49976 6.3061 7.49976 7.49957C7.49976 8.69305 7.97386 9.83764 8.81778 10.6816C9.66169 11.5255 10.8063 11.9996 11.9998 11.9996ZM14.9998 7.49957C14.9998 8.29522 14.6837 9.05828 14.1211 9.62089C13.5585 10.1835 12.7954 10.4996 11.9998 10.4996C11.2041 10.4996 10.441 10.1835 9.87844 9.62089C9.31583 9.05828 8.99976 8.29522 8.99976 7.49957C8.99976 6.70392 9.31583 5.94086 9.87844 5.37825C10.441 4.81564 11.2041 4.49957 11.9998 4.49957C12.7954 4.49957 13.5585 4.81564 14.1211 5.37825C14.6837 5.94086 14.9998 6.70392 14.9998 7.49957ZM20.9998 19.4996C20.9998 20.9996 19.4998 20.9996 19.4998 20.9996H4.49976C4.49976 20.9996 2.99976 20.9996 2.99976 19.4996C2.99976 17.9996 4.49976 13.4996 11.9998 13.4996C19.4998 13.4996 20.9998 17.9996 20.9998 19.4996ZM19.4998 19.4936C19.4983 19.1246 19.2688 18.0146 18.2518 16.9976C17.2738 16.0196 15.4333 14.9996 11.9998 14.9996C8.56476 14.9996 6.72576 16.0196 5.74776 16.9976C4.73076 18.0146 4.50276 19.1246 4.49976 19.4936H19.4998Z" fill="#9CA3AF"/>
</svg>
