<svg width="22" height="17" viewBox="0 0 22 17" fill="none" xmlns="http://www.w3.org/2000/svg">
<path d="M7.25 14.75C7.25 15.5784 6.57843 16.25 5.75 16.25C4.92157 16.25 4.25 15.5784 4.25 14.75M7.25 14.75C7.25 13.9216 6.57843 13.25 5.75 13.25C4.92157 13.25 4.25 13.9216 4.25 14.75M7.25 14.75H13.25M4.25 14.75H2.375C1.75368 14.75 1.25 14.2463 1.25 13.625V10.2504M18.5 14.75C18.5 15.5784 17.8284 16.25 17 16.25C16.1716 16.25 15.5 15.5784 15.5 14.75M18.5 14.75C18.5 13.9216 17.8284 13.25 17 13.25C16.1716 13.25 15.5 13.9216 15.5 14.75M18.5 14.75L19.625 14.75C20.2463 14.75 20.7537 14.2457 20.7154 13.6256C20.5054 10.218 19.3473 7.06688 17.5016 4.43284C17.1394 3.91592 16.5529 3.60774 15.9227 3.57315H13.25M15.5 14.75H13.25M13.25 3.57315V2.61479C13.25 2.0473 12.8275 1.56721 12.263 1.50863C10.6153 1.33764 8.94291 1.25 7.25 1.25C5.55709 1.25 3.88466 1.33764 2.23698 1.50863C1.67252 1.56721 1.25 2.0473 1.25 2.61479V10.2504M13.25 3.57315V10.2504M13.25 14.75V10.2504M13.25 10.2504H1.25" stroke="#1F2A37" stroke-width="1.5" stroke-linecap="round" stroke-linejoin="round"/>
</svg>
