<svg width="23" height="20" viewBox="0 0 23 20" fill="none" xmlns="http://www.w3.org/2000/svg">
<path d="M9.24997 1.10408V6.81802C9.24997 7.41476 9.01292 7.98705 8.59097 8.40901L4.49998 12.5M9.24997 1.10408C8.99883 1.12743 8.74881 1.15465 8.49997 1.18568M9.24997 1.10408C9.99072 1.03521 10.7412 1 11.5 1C12.2587 1 13.0092 1.03521 13.75 1.10408M13.75 1.10408V6.81802C13.75 7.41476 13.987 7.98705 14.409 8.40901L19.3 13.3M13.75 1.10408C14.0011 1.12743 14.2511 1.15465 14.5 1.18568M19.3 13.3L17.7299 13.6925C15.6456 14.2136 13.4216 13.9608 11.5 13C9.57839 12.0392 7.35432 11.7864 5.27007 12.3075L4.49998 12.5M19.3 13.3L20.7022 14.7022C21.9341 15.9341 21.3527 18.0202 19.6354 18.3134C16.9911 18.7649 14.273 19 11.5 19C8.72696 19 6.00888 18.7649 3.36456 18.3134C1.64725 18.0202 1.06588 15.9341 2.29777 14.7022L4.49998 12.5" stroke="white" stroke-width="1.5" stroke-linecap="round" stroke-linejoin="round"/>
</svg>
