<svg width="25" height="24" viewBox="0 0 25 24" fill="none" xmlns="http://www.w3.org/2000/svg">
<path d="M22.25 6.75V17.25C22.25 18.4926 21.2426 19.5 20 19.5H5C3.75736 19.5 2.75 18.4926 2.75 17.25V6.75M22.25 6.75C22.25 5.50736 21.2426 4.5 20 4.5H5C3.75736 4.5 2.75 5.50736 2.75 6.75M22.25 6.75V6.99271C22.25 7.77405 21.8447 8.49945 21.1792 8.90894L13.6792 13.5243C12.9561 13.9694 12.0439 13.9694 11.3208 13.5243L3.82078 8.90894C3.15535 8.49945 2.75 7.77405 2.75 6.99271V6.75" stroke="white" stroke-width="1.5" stroke-linecap="round" stroke-linejoin="round"/>
</svg>
