<svg width="22" height="20" viewBox="0 0 22 20" fill="none" xmlns="http://www.w3.org/2000/svg">
<path d="M8.74997 1.10408V6.81802C8.74997 7.41476 8.51292 7.98705 8.09097 8.40901L3.99998 12.5M8.74997 1.10408C8.49883 1.12743 8.24881 1.15465 7.99997 1.18568M8.74997 1.10408C9.49072 1.03521 10.2412 1 11 1C11.7587 1 12.5092 1.03521 13.25 1.10408M13.25 1.10408V6.81802C13.25 7.41476 13.487 7.98705 13.909 8.40901L18.8 13.3M13.25 1.10408C13.5011 1.12743 13.7511 1.15465 14 1.18568M18.8 13.3L17.2299 13.6925C15.1456 14.2136 12.9216 13.9608 11 13C9.07839 12.0392 6.85432 11.7864 4.77007 12.3075L3.99998 12.5M18.8 13.3L20.2022 14.7022C21.4341 15.9341 20.8527 18.0202 19.1354 18.3134C16.4911 18.7649 13.773 19 11 19C8.22696 19 5.50888 18.7649 2.86456 18.3134C1.14725 18.0202 0.565876 15.9341 1.79777 14.7022L3.99998 12.5" stroke="#9CA3AF" stroke-width="1.5" stroke-linecap="round" stroke-linejoin="round"/>
</svg>
